<mxfile host="app.diagrams.net" agent="Mozilla/5.0 (Windows NT 10.0; Win64; x64) AppleWebKit/537.36 (KHTML, like Gecko) Chrome/130.0.0.0 Safari/537.36" version="24.8.6">
  <diagram name="Page-1" id="5JgKhP-ZxCAz9RYWUaCW">
    <mxGraphModel dx="1290" dy="615" grid="1" gridSize="10" guides="1" tooltips="1" connect="1" arrows="1" fold="1" page="1" pageScale="1" pageWidth="827" pageHeight="1169" math="0" shadow="0">
      <root>
        <mxCell id="0" />
        <mxCell id="1" parent="0" />
        <mxCell id="1gxxilY05SbNSWMq_lIi-9" style="edgeStyle=none;curved=1;rounded=0;orthogonalLoop=1;jettySize=auto;html=1;fontSize=12;startSize=8;endSize=8;" edge="1" parent="1" source="1gxxilY05SbNSWMq_lIi-1" target="1gxxilY05SbNSWMq_lIi-2">
          <mxGeometry relative="1" as="geometry" />
        </mxCell>
        <mxCell id="1gxxilY05SbNSWMq_lIi-1" value="Text Input (Document)" style="rounded=0;whiteSpace=wrap;html=1;" vertex="1" parent="1">
          <mxGeometry x="200" y="130" width="190" height="60" as="geometry" />
        </mxCell>
        <mxCell id="1gxxilY05SbNSWMq_lIi-10" style="edgeStyle=none;curved=1;rounded=0;orthogonalLoop=1;jettySize=auto;html=1;entryX=0.5;entryY=0;entryDx=0;entryDy=0;fontSize=12;startSize=8;endSize=8;" edge="1" parent="1" source="1gxxilY05SbNSWMq_lIi-2" target="1gxxilY05SbNSWMq_lIi-3">
          <mxGeometry relative="1" as="geometry" />
        </mxCell>
        <mxCell id="1gxxilY05SbNSWMq_lIi-2" value="Preprocess Text&lt;div&gt;(Normalize text, remove non-alphanumerics, split intro words&lt;/div&gt;" style="rounded=0;whiteSpace=wrap;html=1;" vertex="1" parent="1">
          <mxGeometry x="200" y="240" width="190" height="60" as="geometry" />
        </mxCell>
        <mxCell id="1gxxilY05SbNSWMq_lIi-11" style="edgeStyle=none;curved=1;rounded=0;orthogonalLoop=1;jettySize=auto;html=1;entryX=0.5;entryY=0;entryDx=0;entryDy=0;fontSize=12;startSize=8;endSize=8;" edge="1" parent="1" source="1gxxilY05SbNSWMq_lIi-3" target="1gxxilY05SbNSWMq_lIi-4">
          <mxGeometry relative="1" as="geometry" />
        </mxCell>
        <mxCell id="1gxxilY05SbNSWMq_lIi-3" value="Word List (preprocessed)" style="rounded=0;whiteSpace=wrap;html=1;" vertex="1" parent="1">
          <mxGeometry x="200" y="350" width="190" height="60" as="geometry" />
        </mxCell>
        <mxCell id="1gxxilY05SbNSWMq_lIi-13" style="edgeStyle=none;curved=1;rounded=0;orthogonalLoop=1;jettySize=auto;html=1;fontSize=12;startSize=8;endSize=8;" edge="1" parent="1" source="1gxxilY05SbNSWMq_lIi-4" target="1gxxilY05SbNSWMq_lIi-6">
          <mxGeometry relative="1" as="geometry" />
        </mxCell>
        <mxCell id="1gxxilY05SbNSWMq_lIi-4" value="&lt;div&gt;Is Noun?&lt;/div&gt;(Check if word is noun,&lt;div&gt;based on suffixes, title. or common non-nouns)&lt;/div&gt;" style="rounded=0;whiteSpace=wrap;html=1;" vertex="1" parent="1">
          <mxGeometry x="200" y="440" width="190" height="60" as="geometry" />
        </mxCell>
        <mxCell id="1gxxilY05SbNSWMq_lIi-14" style="edgeStyle=none;curved=1;rounded=0;orthogonalLoop=1;jettySize=auto;html=1;fontSize=12;startSize=8;endSize=8;" edge="1" parent="1" source="1gxxilY05SbNSWMq_lIi-5" target="1gxxilY05SbNSWMq_lIi-7">
          <mxGeometry relative="1" as="geometry" />
        </mxCell>
        <mxCell id="1gxxilY05SbNSWMq_lIi-5" value="Noun Identified&lt;div&gt;(Add to noun List)&lt;/div&gt;" style="rounded=0;whiteSpace=wrap;html=1;" vertex="1" parent="1">
          <mxGeometry x="110" y="550" width="160" height="60" as="geometry" />
        </mxCell>
        <mxCell id="1gxxilY05SbNSWMq_lIi-6" value="Not a Noun&lt;div&gt;(Ignore Word)&lt;/div&gt;" style="rounded=0;whiteSpace=wrap;html=1;" vertex="1" parent="1">
          <mxGeometry x="330" y="550" width="140" height="60" as="geometry" />
        </mxCell>
        <mxCell id="1gxxilY05SbNSWMq_lIi-15" style="edgeStyle=none;curved=1;rounded=0;orthogonalLoop=1;jettySize=auto;html=1;exitX=1;exitY=0.5;exitDx=0;exitDy=0;entryX=0;entryY=0.5;entryDx=0;entryDy=0;fontSize=12;startSize=8;endSize=8;" edge="1" parent="1" source="1gxxilY05SbNSWMq_lIi-7" target="1gxxilY05SbNSWMq_lIi-8">
          <mxGeometry relative="1" as="geometry" />
        </mxCell>
        <mxCell id="1gxxilY05SbNSWMq_lIi-7" value="Noun List Extracted" style="rounded=0;whiteSpace=wrap;html=1;" vertex="1" parent="1">
          <mxGeometry x="120" y="660" width="140" height="60" as="geometry" />
        </mxCell>
        <mxCell id="1gxxilY05SbNSWMq_lIi-8" value="Return Noun List" style="rounded=0;whiteSpace=wrap;html=1;" vertex="1" parent="1">
          <mxGeometry x="320" y="670" width="120" height="60" as="geometry" />
        </mxCell>
        <mxCell id="1gxxilY05SbNSWMq_lIi-12" style="edgeStyle=none;curved=1;rounded=0;orthogonalLoop=1;jettySize=auto;html=1;entryX=0.351;entryY=0.013;entryDx=0;entryDy=0;entryPerimeter=0;fontSize=12;startSize=8;endSize=8;" edge="1" parent="1" source="1gxxilY05SbNSWMq_lIi-4" target="1gxxilY05SbNSWMq_lIi-5">
          <mxGeometry relative="1" as="geometry" />
        </mxCell>
      </root>
    </mxGraphModel>
  </diagram>
</mxfile>
